<svg width="36" height="36" viewBox="0 0 36 36" fill="none" xmlns="http://www.w3.org/2000/svg">
<g id="7830798_outdoors_tree_valley_icon 1" clip-path="url(#clip0_17_103)">
<path id="Vector" d="M35.2497 22.488H31.4997V20.613C31.4997 20.5135 31.5392 20.4182 31.6095 20.3478C31.6798 20.2775 31.7752 20.238 31.8747 20.238H34.4997C34.631 20.2379 34.76 20.2034 34.8738 20.1379C34.9876 20.0723 35.0822 19.978 35.1481 19.8644C35.2141 19.7508 35.249 19.6219 35.2494 19.4905C35.2499 19.3592 35.2158 19.23 35.1507 19.116L32.7912 14.988H33.7497C33.8833 14.9878 34.0145 14.9519 34.1296 14.8841C34.2448 14.8162 34.3397 14.7188 34.4045 14.6019C34.4694 14.4851 34.5018 14.353 34.4985 14.2194C34.4952 14.0858 34.4562 13.9555 34.3857 13.842L30.6357 7.84199C30.5638 7.74016 30.4685 7.65707 30.3578 7.59973C30.2471 7.54238 30.1243 7.51245 29.9997 7.51245C29.875 7.51245 29.7522 7.54238 29.6415 7.59973C29.5308 7.65707 29.4356 7.74016 29.3637 7.84199L25.6137 13.842C25.5431 13.9555 25.5041 14.0858 25.5008 14.2194C25.4975 14.353 25.53 14.4851 25.5948 14.6019C25.6597 14.7188 25.7546 14.8162 25.8697 14.8841C25.9848 14.9519 26.116 14.9878 26.2497 14.988H27.2082L24.8472 19.116C24.782 19.2301 24.7479 19.3594 24.7484 19.4909C24.7489 19.6224 24.784 19.7514 24.8501 19.865C24.9162 19.9787 25.011 20.073 25.125 20.1384C25.239 20.2039 25.3682 20.2382 25.4997 20.238H28.1247C28.2241 20.238 28.3195 20.2775 28.3898 20.3478C28.4602 20.4182 28.4997 20.5135 28.4997 20.613V22.8375C25.3444 23.6178 22.4079 25.1053 19.9122 27.1875C19.8596 27.2294 19.8194 27.2846 19.7956 27.3474C19.7719 27.4103 19.7655 27.4783 19.7772 27.5445C19.7881 27.6109 19.8169 27.6731 19.8605 27.7244C19.9041 27.7756 19.9609 27.814 20.0247 27.8355C23.3124 28.8553 26.2607 30.7505 28.5537 33.318C28.8105 33.6285 29.0008 33.9884 29.1128 34.3754C29.2248 34.7624 29.256 35.1684 29.2047 35.568C29.1977 35.6217 29.2023 35.6764 29.2184 35.7282C29.2344 35.7799 29.2615 35.8276 29.2977 35.868C29.3327 35.9079 29.3758 35.9397 29.4242 35.9615C29.4726 35.9832 29.5251 35.9943 29.5782 35.994H35.2497C35.4486 35.994 35.6393 35.915 35.78 35.7743C35.9207 35.6337 35.9997 35.4429 35.9997 35.244V23.244C36.0005 23.145 35.9816 23.0468 35.9443 22.9551C35.907 22.8634 35.8519 22.7801 35.7821 22.7098C35.7124 22.6395 35.6295 22.5837 35.5381 22.5457C35.4467 22.5076 35.3487 22.488 35.2497 22.488Z" fill="#FFB90E"/>
<path id="Vector_2" d="M0.333 31.614C0.230452 31.6826 0.14641 31.7754 0.0883234 31.8843C0.0302367 31.9931 -0.000100608 32.1146 2.50662e-07 32.238V35.238C2.50662e-07 35.4369 0.0790179 35.6277 0.21967 35.7683C0.360322 35.909 0.551088 35.988 0.75 35.988H26.25C26.3925 35.988 26.5321 35.9473 26.6523 35.8708C26.7725 35.7943 26.8685 35.6851 26.9289 35.5561C26.9894 35.427 27.0118 35.2834 26.9936 35.1421C26.9753 35.0007 26.9172 34.8675 26.826 34.758C23.1555 30.3525 16.359 28.8255 12 28.542V25.113C12 25.0135 12.0395 24.9182 12.1098 24.8478C12.1802 24.7775 12.2755 24.738 12.375 24.738H17.31C17.5844 24.7378 17.8534 24.6623 18.0879 24.5198C18.3223 24.3773 18.5132 24.1732 18.6397 23.9297C18.7662 23.6863 18.8236 23.4128 18.8054 23.139C18.7873 22.8652 18.6945 22.6017 18.537 22.377L14.937 17.238H15.8805C16.1492 17.2378 16.413 17.1655 16.6442 17.0285C16.8754 16.8915 17.0656 16.695 17.1948 16.4593C17.324 16.2237 17.3876 15.9577 17.3788 15.6891C17.3701 15.4205 17.2893 15.1592 17.145 14.9325L13.3275 8.9325C13.5493 8.87003 13.7537 8.75728 13.9249 8.60302C14.0961 8.44876 14.2295 8.25713 14.3146 8.043C14.3998 7.82887 14.4345 7.598 14.416 7.3683C14.3975 7.1386 14.3263 6.91625 14.208 6.7185L10.3935 0.352502C10.3219 0.247935 10.2258 0.162398 10.1137 0.103296C10.0016 0.0441935 9.87675 0.0133057 9.75 0.0133057C9.62325 0.0133057 9.49841 0.0441935 9.38629 0.103296C9.27416 0.162398 9.17813 0.247935 9.1065 0.352502L5.2875 6.717C5.1689 6.9149 5.09754 7.13748 5.07898 7.36745C5.06043 7.59741 5.09516 7.82856 5.1805 8.04291C5.26583 8.25727 5.39946 8.44905 5.571 8.60334C5.74253 8.75763 5.94734 8.87027 6.1695 8.9325L2.352 14.9325C2.2073 15.1592 2.12621 15.4207 2.11725 15.6895C2.10829 15.9583 2.17177 16.2246 2.30105 16.4605C2.43033 16.6963 2.62065 16.8931 2.85208 17.0302C3.08351 17.1672 3.34753 17.2395 3.6165 17.2395H4.56L0.96 22.3785C0.80244 22.6033 0.709579 22.867 0.691529 23.1409C0.67348 23.4148 0.730936 23.6884 0.857638 23.9319C0.98434 24.1754 1.17543 24.3794 1.4101 24.5219C1.64476 24.6643 1.91401 24.7395 2.1885 24.7395H7.125C7.22446 24.7395 7.31984 24.779 7.39017 24.8493C7.46049 24.9197 7.5 25.015 7.5 25.1145V28.7295C4.92585 29.1448 2.47712 30.1303 0.333 31.614Z" fill="#FFB90E"/>
</g>
<defs>
<clipPath id="clip0_17_103">
<rect width="36" height="36" fill="white"/>
</clipPath>
</defs>
</svg>
