<svg width="20" height="18" viewBox="0 0 20 18" fill="none" xmlns="http://www.w3.org/2000/svg">
<g id="ant-design:star-filled">
<path id="Vector" d="M16.9612 6.20694L12.3892 5.55831L10.3454 1.51358C10.2896 1.40284 10.1978 1.31319 10.0843 1.2587C9.79983 1.12159 9.4541 1.23585 9.31185 1.51358L7.26807 5.55831L2.69612 6.20694C2.57008 6.22452 2.45483 6.28253 2.3666 6.37042C2.25993 6.47744 2.20115 6.62143 2.20318 6.77074C2.2052 6.92006 2.26787 7.06247 2.3774 7.16671L5.68526 10.3149L4.90377 14.7605C4.88544 14.8639 4.89716 14.9702 4.93761 15.0675C4.97805 15.1647 5.04559 15.2489 5.13258 15.3106C5.21956 15.3723 5.32251 15.4089 5.42975 15.4164C5.53698 15.4239 5.64422 15.4018 5.73929 15.3528L9.82864 13.254L13.918 15.3528C14.0296 15.4108 14.1593 15.4302 14.2835 15.4091C14.5969 15.3564 14.8075 15.0663 14.7535 14.7605L13.972 10.3149L17.2799 7.16671C17.3699 7.08057 17.4293 6.96807 17.4474 6.84503C17.496 6.53741 17.2763 6.25264 16.9612 6.20694Z" fill="white"/>
</g>
</svg>
