<svg width="20" height="18" viewBox="0 0 20 18" fill="none" xmlns="http://www.w3.org/2000/svg">
<g id="ant-design:star-filled">
<path id="Vector" fill-rule="evenodd" clip-rule="evenodd" d="M9.46223 2C9.76212 2 10.04 2.15358 10.1942 2.40458L12.5609 6.25514L16.4589 7.01617C16.7677 7.07642 17.0173 7.29767 17.1085 7.59183C17.1998 7.886 17.1178 8.20525 16.8951 8.42258L13.8036 11.4406L14.5676 15.1699C14.6316 15.482 14.5078 15.8024 14.2487 15.9956C13.9896 16.1887 13.6404 16.221 13.3488 16.0787L9.46223 14.1817L5.57572 16.0787C5.28411 16.221 4.9349 16.1887 4.67579 15.9956C4.41669 15.8024 4.29293 15.482 4.35687 15.1699L5.12094 11.4406L2.02935 8.42258C1.80674 8.20525 1.72472 7.886 1.81595 7.59183C1.90718 7.29767 2.15686 7.07642 2.46556 7.01617L6.36356 6.25514L8.73021 2.40458C8.88456 2.15358 9.16242 2 9.46223 2ZM9.46223 4.45304L7.63328 7.42875C7.50953 7.63008 7.30453 7.77108 7.06869 7.81717L4.36449 8.34508L6.65124 10.5774C6.85307 10.7744 6.94067 11.0569 6.8847 11.3301L6.37334 13.826L9.08047 12.5047C9.32078 12.3873 9.60368 12.3873 9.84398 12.5047L12.5512 13.826L12.0398 11.3301C11.9838 11.0569 12.0714 10.7744 12.2732 10.5774L14.56 8.34508L11.8558 7.81717C11.6199 7.77108 11.415 7.63008 11.2912 7.42875L9.46223 4.45304Z" fill="white"/>
</g>
</svg>
