<svg width="40" height="40" viewBox="0 0 40 40" fill="none" xmlns="http://www.w3.org/2000/svg">
<g id="Frame 5">
<path id="Vector" d="M33.0909 13H28.1818V6H5.27273C3.46455 6 2 7.56625 2 9.5V28.75H5.27273C5.27273 31.6462 7.47364 34 10.1818 34C12.89 34 15.0909 31.6462 15.0909 28.75H24.9091C24.9091 31.6462 27.11 34 29.8182 34C32.5264 34 34.7273 31.6462 34.7273 28.75H38V20L33.0909 13ZM10.1818 31.375C8.82364 31.375 7.72727 30.2025 7.72727 28.75C7.72727 27.2975 8.82364 26.125 10.1818 26.125C11.54 26.125 12.6364 27.2975 12.6364 28.75C12.6364 30.2025 11.54 31.375 10.1818 31.375ZM32.2727 15.625L35.4882 20H28.1818V15.625H32.2727ZM29.8182 31.375C28.46 31.375 27.3636 30.2025 27.3636 28.75C27.3636 27.2975 28.46 26.125 29.8182 26.125C31.1764 26.125 32.2727 27.2975 32.2727 28.75C32.2727 30.2025 31.1764 31.375 29.8182 31.375Z" fill="#FFB90E"/>
</g>
</svg>
