<svg width="40" height="40" viewBox="0 0 40 40" fill="none" xmlns="http://www.w3.org/2000/svg">
<g id="Group">
<path id="Vector" d="M35.102 18.3699C31.5012 18.3699 28.5714 21.2901 28.5714 24.8791V26.0678C27.1257 25.5528 24.329 24.8791 19.5918 24.8791C14.8547 24.8791 12.0588 25.5528 10.6122 26.0678V24.8791C10.6122 21.2901 7.68245 18.3699 4.08163 18.3699C1.83102 18.3699 0 20.1949 0 22.4381C0 24.0858 0.986123 25.5609 2.51347 26.1948C2.97061 26.386 3.26531 26.8278 3.26531 27.3201L4.08163 30.5747C4.08163 33.4957 6.30122 35.9082 9.14775 36.2312C8.47755 36.5501 8.01061 37.2271 8.01061 38.0163C8.01061 39.1115 8.90204 40 10.0008 40C11.0996 40 11.991 39.1115 11.991 38.0163C11.991 37.2564 11.5567 36.6038 10.9265 36.2702H28.2596C27.6294 36.603 27.1951 37.2556 27.1951 38.0163C27.1951 39.1115 28.0865 40 29.1853 40C30.2841 40 31.1755 39.1115 31.1755 38.0163C31.1755 37.2271 30.7086 36.5501 30.0384 36.2312C32.8825 35.9082 35.102 33.4957 35.102 30.5747L35.9184 27.3201C35.9184 26.827 36.2131 26.386 36.6702 26.1948C38.1976 25.5618 39.1837 24.0858 39.1837 22.4381C39.1837 20.1949 37.3527 18.3699 35.102 18.3699Z" fill="#FFB90E"/>
<path id="Vector_2" d="M12.8569 22.9767C14.5557 22.6676 16.7671 22.4381 19.5916 22.4381C22.4161 22.4381 24.6275 22.6676 26.3263 22.9767C26.9679 20.0313 29.0724 17.6278 31.8373 16.5481V12.2048C31.8373 5.46449 26.3548 0 19.5916 0C12.8291 0 7.34668 5.46449 7.34668 12.2048V16.5489C10.1116 17.6286 12.2153 20.0321 12.8569 22.9767Z" fill="#FFB90E"/>
</g>
</svg>
